<svg height="512pt" viewBox="-73 0 512 512" width="512pt" xmlns="http://www.w3.org/2000/svg"><path d="m356 186c0 93.890625-173 316-173 316s-173-222.109375-173-316 79.109375-176 173-176 173 82.109375 173 176zm0 0" fill="#ff637b"/><path d="m183 66c-69.214844 0-120 56.535156-120 120 0 66.171875 53.828125 120 120 120 65.449219 0 120-52.96875 120-120 0-66.171875-53.828125-120-120-120zm0 0" fill="#ececf1"/><path d="m183 116 30 70h-60zm0 0" fill="#ff637b"/><path d="m213 186-30 70-30-70zm0 0" fill="#76e2f8"/><path d="m103 106c5.519531 0 10-4.480469 10-10 0-5.445312-4.425781-10-10-10-5.519531 0-10 4.480469-10 10 0 5.5625 4.539062 10 10 10zm0 0"/><path d="m183 512c3.085938 0 5.992188-1.421875 7.890625-3.855469 7.148437-9.179687 175.109375-225.925781 175.109375-322.144531 0-97.34375-81.574219-186-183-186-101.324219 0-183 88.546875-183 186 0 96.21875 167.960938 312.964844 175.109375 322.144531 1.898437 2.433594 4.804687 3.855469 7.890625 3.855469zm-163-326c0-88.429688 76.167969-166 163-166s163 77.570312 163 166c0 74.410156-118.148438 240.074219-163 299.515625-45.183594-59.878906-163-225.292969-163-299.515625zm0 0"/><path d="m313 186c0-71.683594-58.316406-130-130-130-17.066406 0-32.832031 3.125-49.605469 9.835938-5.125 2.050781-7.621093 7.871093-5.570312 13 2.050781 5.125 7.871093 7.617187 13 5.566406 14.53125-5.808594 27.535156-8.402344 42.175781-8.402344 60.652344 0 110 49.347656 110 110s-49.347656 110-110 110-110-49.347656-110-110c0-18.824219 4.722656-36.898438 14.03125-53.730469 2.671875-4.832031.921875-10.917969-3.910156-13.589843-4.832032-2.671876-10.917969-.921876-13.589844 3.910156-10.96875 19.824218-16.53125 41.160156-16.53125 63.410156 0 71.683594 58.316406 130 130 130s130-58.316406 130-130zm0 0"/><path d="m143.808594 189.9375 30 70c1.578125 3.679688 5.191406 6.0625 9.191406 6.0625s7.613281-2.382812 9.191406-6.0625l30-70c1.074219-2.503906 1.082032-5.359375 0-7.875l-30-70c-1.578125-3.679688-5.191406-6.0625-9.191406-6.0625s-7.613281 2.382812-9.191406 6.0625l-30 70c-1.0625 2.46875-1.09375 5.324219 0 7.875zm39.191406 40.675781-14.835938-34.613281h29.671876zm0-89.226562 14.835938 34.613281h-29.671876zm0 0"/></svg>